<mxfile host="app.diagrams.net" agent="Mozilla/5.0 (Macintosh; Intel Mac OS X 10_15_7) AppleWebKit/537.36 (KHTML, like Gecko) Chrome/131.0.0.0 Safari/537.36" version="25.0.3">
  <diagram name="Page-1" id="vrFGVNxduuFk5WtsSmBy">
    <mxGraphModel dx="1992" dy="1884" grid="1" gridSize="10" guides="1" tooltips="1" connect="1" arrows="1" fold="1" page="1" pageScale="1" pageWidth="850" pageHeight="1100" math="0" shadow="0">
      <root>
        <mxCell id="0" />
        <mxCell id="1" parent="0" />
        <mxCell id="mnMjgfDMLzWEeDn6TH5Z-1" value="AWS Cloud.&amp;nbsp; &amp;nbsp; &amp;nbsp; &amp;nbsp; &amp;nbsp; &amp;nbsp; &amp;nbsp; &amp;nbsp; &amp;nbsp; &amp;nbsp; &amp;nbsp; &amp;nbsp; &amp;nbsp; &amp;nbsp; &amp;nbsp; &amp;nbsp; &amp;nbsp; &amp;nbsp; &amp;nbsp; &amp;nbsp; &amp;nbsp; &amp;nbsp; &amp;nbsp; &amp;nbsp; &amp;nbsp; &amp;nbsp; &amp;nbsp; &amp;nbsp; &amp;nbsp; &amp;nbsp; &amp;nbsp; &amp;nbsp; &amp;nbsp; &amp;nbsp; &amp;nbsp; &amp;nbsp; &amp;nbsp; &amp;nbsp; &amp;nbsp; &amp;nbsp; &amp;nbsp; &amp;nbsp; &amp;nbsp; &amp;nbsp;&lt;b&gt;&lt;i&gt;David Eliason 12/21/2024&lt;/i&gt;&lt;/b&gt;" style="points=[[0,0],[0.25,0],[0.5,0],[0.75,0],[1,0],[1,0.25],[1,0.5],[1,0.75],[1,1],[0.75,1],[0.5,1],[0.25,1],[0,1],[0,0.75],[0,0.5],[0,0.25]];outlineConnect=0;gradientColor=none;html=1;whiteSpace=wrap;fontSize=12;fontStyle=0;container=1;pointerEvents=0;collapsible=0;recursiveResize=0;shape=mxgraph.aws4.group;grIcon=mxgraph.aws4.group_aws_cloud_alt;strokeColor=#232F3E;fillColor=none;verticalAlign=top;align=left;spacingLeft=30;fontColor=#232F3E;dashed=0;" vertex="1" parent="1">
          <mxGeometry x="30" y="20" width="930" height="630" as="geometry" />
        </mxCell>
        <mxCell id="mnMjgfDMLzWEeDn6TH5Z-3" value="Region us-west-2" style="points=[[0,0],[0.25,0],[0.5,0],[0.75,0],[1,0],[1,0.25],[1,0.5],[1,0.75],[1,1],[0.75,1],[0.5,1],[0.25,1],[0,1],[0,0.75],[0,0.5],[0,0.25]];outlineConnect=0;gradientColor=none;html=1;whiteSpace=wrap;fontSize=12;fontStyle=0;container=1;pointerEvents=0;collapsible=0;recursiveResize=0;shape=mxgraph.aws4.group;grIcon=mxgraph.aws4.group_region;strokeColor=#00A4A6;fillColor=none;verticalAlign=top;align=left;spacingLeft=30;fontColor=#147EBA;dashed=1;" vertex="1" parent="mnMjgfDMLzWEeDn6TH5Z-1">
          <mxGeometry x="40" y="40" width="880" height="570" as="geometry" />
        </mxCell>
        <mxCell id="mnMjgfDMLzWEeDn6TH5Z-4" value="VPC 10.0.0.0/16" style="points=[[0,0],[0.25,0],[0.5,0],[0.75,0],[1,0],[1,0.25],[1,0.5],[1,0.75],[1,1],[0.75,1],[0.5,1],[0.25,1],[0,1],[0,0.75],[0,0.5],[0,0.25]];outlineConnect=0;gradientColor=none;html=1;whiteSpace=wrap;fontSize=12;fontStyle=0;container=1;pointerEvents=0;collapsible=0;recursiveResize=0;shape=mxgraph.aws4.group;grIcon=mxgraph.aws4.group_vpc2;strokeColor=#8C4FFF;fillColor=none;verticalAlign=top;align=left;spacingLeft=30;fontColor=#AAB7B8;dashed=0;" vertex="1" parent="mnMjgfDMLzWEeDn6TH5Z-3">
          <mxGeometry x="30" y="30" width="840" height="530" as="geometry" />
        </mxCell>
        <mxCell id="mnMjgfDMLzWEeDn6TH5Z-13" value="Public subnet 2&lt;div&gt;10.0.2.0/24&lt;/div&gt;" style="points=[[0,0],[0.25,0],[0.5,0],[0.75,0],[1,0],[1,0.25],[1,0.5],[1,0.75],[1,1],[0.75,1],[0.5,1],[0.25,1],[0,1],[0,0.75],[0,0.5],[0,0.25]];outlineConnect=0;html=1;whiteSpace=wrap;fontSize=12;fontStyle=0;container=1;pointerEvents=0;collapsible=0;recursiveResize=0;shape=mxgraph.aws4.group;grIcon=mxgraph.aws4.group_security_group;grStroke=0;strokeColor=#82b366;fillColor=#d5e8d4;verticalAlign=top;align=left;spacingLeft=30;dashed=0;" vertex="1" parent="mnMjgfDMLzWEeDn6TH5Z-4">
          <mxGeometry x="530" y="20" width="260" height="200" as="geometry" />
        </mxCell>
        <mxCell id="mnMjgfDMLzWEeDn6TH5Z-14" value="Security group" style="fillColor=none;strokeColor=#DD3522;verticalAlign=top;fontStyle=0;fontColor=#DD3522;whiteSpace=wrap;html=1;" vertex="1" parent="mnMjgfDMLzWEeDn6TH5Z-13">
          <mxGeometry x="10" y="40" width="230" height="140" as="geometry" />
        </mxCell>
        <mxCell id="mnMjgfDMLzWEeDn6TH5Z-15" value="Private subnet 2&lt;div&gt;10.0.3.0/24&lt;/div&gt;" style="points=[[0,0],[0.25,0],[0.5,0],[0.75,0],[1,0],[1,0.25],[1,0.5],[1,0.75],[1,1],[0.75,1],[0.5,1],[0.25,1],[0,1],[0,0.75],[0,0.5],[0,0.25]];outlineConnect=0;html=1;whiteSpace=wrap;fontSize=12;fontStyle=0;container=1;pointerEvents=0;collapsible=0;recursiveResize=0;shape=mxgraph.aws4.group;grIcon=mxgraph.aws4.group_security_group;grStroke=0;strokeColor=#9673a6;fillColor=#e1d5e7;verticalAlign=top;align=left;spacingLeft=30;dashed=0;" vertex="1" parent="mnMjgfDMLzWEeDn6TH5Z-4">
          <mxGeometry x="535" y="250" width="250" height="260" as="geometry" />
        </mxCell>
        <mxCell id="mnMjgfDMLzWEeDn6TH5Z-16" value="Private subnet 1&lt;div&gt;10.0.1.0/24&lt;/div&gt;" style="points=[[0,0],[0.25,0],[0.5,0],[0.75,0],[1,0],[1,0.25],[1,0.5],[1,0.75],[1,1],[0.75,1],[0.5,1],[0.25,1],[0,1],[0,0.75],[0,0.5],[0,0.25]];outlineConnect=0;html=1;whiteSpace=wrap;fontSize=12;fontStyle=0;container=1;pointerEvents=0;collapsible=0;recursiveResize=0;shape=mxgraph.aws4.group;grIcon=mxgraph.aws4.group_security_group;grStroke=0;strokeColor=#9673a6;fillColor=#e1d5e7;verticalAlign=top;align=left;spacingLeft=30;dashed=0;" vertex="1" parent="mnMjgfDMLzWEeDn6TH5Z-4">
          <mxGeometry x="150" y="250" width="250" height="260" as="geometry" />
        </mxCell>
        <mxCell id="mnMjgfDMLzWEeDn6TH5Z-19" value="Availability Zone B" style="fillColor=none;strokeColor=#147EBA;dashed=1;verticalAlign=top;fontStyle=0;fontColor=#147EBA;whiteSpace=wrap;html=1;" vertex="1" parent="mnMjgfDMLzWEeDn6TH5Z-4">
          <mxGeometry x="520" y="-20" width="270" height="550" as="geometry" />
        </mxCell>
        <mxCell id="mnMjgfDMLzWEeDn6TH5Z-20" value="" style="sketch=0;points=[[0,0,0],[0.25,0,0],[0.5,0,0],[0.75,0,0],[1,0,0],[0,1,0],[0.25,1,0],[0.5,1,0],[0.75,1,0],[1,1,0],[0,0.25,0],[0,0.5,0],[0,0.75,0],[1,0.25,0],[1,0.5,0],[1,0.75,0]];outlineConnect=0;fontColor=#232F3E;fillColor=#ED7100;strokeColor=#ffffff;dashed=0;verticalLabelPosition=bottom;verticalAlign=top;align=center;html=1;fontSize=12;fontStyle=0;aspect=fixed;shape=mxgraph.aws4.resourceIcon;resIcon=mxgraph.aws4.ec2;" vertex="1" parent="mnMjgfDMLzWEeDn6TH5Z-4">
          <mxGeometry x="580" y="100" width="58" height="58" as="geometry" />
        </mxCell>
        <mxCell id="mnMjgfDMLzWEeDn6TH5Z-7" value="Public subnet 1&amp;nbsp;&lt;div&gt;10.0.0.0/24&lt;/div&gt;&lt;div&gt;&lt;br&gt;&lt;/div&gt;" style="points=[[0,0],[0.25,0],[0.5,0],[0.75,0],[1,0],[1,0.25],[1,0.5],[1,0.75],[1,1],[0.75,1],[0.5,1],[0.25,1],[0,1],[0,0.75],[0,0.5],[0,0.25]];outlineConnect=0;html=1;whiteSpace=wrap;fontSize=12;fontStyle=0;container=1;pointerEvents=0;collapsible=0;recursiveResize=0;shape=mxgraph.aws4.group;grIcon=mxgraph.aws4.group_security_group;grStroke=0;strokeColor=#82b366;fillColor=#d5e8d4;verticalAlign=top;align=left;spacingLeft=30;dashed=0;" vertex="1" parent="mnMjgfDMLzWEeDn6TH5Z-3">
          <mxGeometry x="180" y="50" width="250" height="210" as="geometry" />
        </mxCell>
        <mxCell id="mnMjgfDMLzWEeDn6TH5Z-18" value="Availability Zone A" style="fillColor=none;strokeColor=#147EBA;dashed=1;verticalAlign=top;fontStyle=0;fontColor=#147EBA;whiteSpace=wrap;html=1;" vertex="1" parent="mnMjgfDMLzWEeDn6TH5Z-3">
          <mxGeometry x="170" y="10" width="270" height="550" as="geometry" />
        </mxCell>
        <mxCell id="mnMjgfDMLzWEeDn6TH5Z-21" value="Internet&#xa;gateway" style="sketch=0;outlineConnect=0;fontColor=#232F3E;gradientColor=none;strokeColor=#232F3E;fillColor=#ffffff;dashed=0;verticalLabelPosition=bottom;verticalAlign=top;align=center;html=1;fontSize=12;fontStyle=0;aspect=fixed;shape=mxgraph.aws4.resourceIcon;resIcon=mxgraph.aws4.internet_gateway;" vertex="1" parent="mnMjgfDMLzWEeDn6TH5Z-3">
          <mxGeometry x="470" y="10" width="50" height="50" as="geometry" />
        </mxCell>
        <mxCell id="mnMjgfDMLzWEeDn6TH5Z-25" style="edgeStyle=orthogonalEdgeStyle;rounded=0;orthogonalLoop=1;jettySize=auto;html=1;targetPerimeterSpacing=1;" edge="1" parent="mnMjgfDMLzWEeDn6TH5Z-3" source="mnMjgfDMLzWEeDn6TH5Z-20" target="mnMjgfDMLzWEeDn6TH5Z-21">
          <mxGeometry relative="1" as="geometry" />
        </mxCell>
        <mxCell id="mnMjgfDMLzWEeDn6TH5Z-29" value="" style="sketch=0;outlineConnect=0;fontColor=#232F3E;gradientColor=none;fillColor=#8C4FFF;strokeColor=none;dashed=0;verticalLabelPosition=bottom;verticalAlign=top;align=center;html=1;fontSize=12;fontStyle=0;aspect=fixed;pointerEvents=1;shape=mxgraph.aws4.nat_gateway;" vertex="1" parent="mnMjgfDMLzWEeDn6TH5Z-3">
          <mxGeometry x="260" y="110" width="78" height="78" as="geometry" />
        </mxCell>
        <mxCell id="mnMjgfDMLzWEeDn6TH5Z-28" style="edgeStyle=orthogonalEdgeStyle;rounded=0;orthogonalLoop=1;jettySize=auto;html=1;" edge="1" parent="1" source="mnMjgfDMLzWEeDn6TH5Z-26" target="mnMjgfDMLzWEeDn6TH5Z-21">
          <mxGeometry relative="1" as="geometry">
            <Array as="points">
              <mxPoint x="-31" y="-10" />
              <mxPoint x="570" y="-10" />
            </Array>
          </mxGeometry>
        </mxCell>
        <mxCell id="mnMjgfDMLzWEeDn6TH5Z-26" value="" style="sketch=0;outlineConnect=0;fontColor=#232F3E;gradientColor=none;fillColor=#232F3D;strokeColor=none;dashed=0;verticalLabelPosition=bottom;verticalAlign=top;align=center;html=1;fontSize=12;fontStyle=0;aspect=fixed;pointerEvents=1;shape=mxgraph.aws4.internet_alt2;" vertex="1" parent="1">
          <mxGeometry x="-70" y="12" width="78" height="78" as="geometry" />
        </mxCell>
        <mxCell id="mnMjgfDMLzWEeDn6TH5Z-31" value="" style="shape=table;startSize=0;container=1;collapsible=0;childLayout=tableLayout;fontSize=16;" vertex="1" parent="1">
          <mxGeometry x="-150" y="360" width="150" height="97" as="geometry" />
        </mxCell>
        <mxCell id="mnMjgfDMLzWEeDn6TH5Z-32" value="" style="shape=tableRow;horizontal=0;startSize=0;swimlaneHead=0;swimlaneBody=0;strokeColor=inherit;top=0;left=0;bottom=0;right=0;collapsible=0;dropTarget=0;fillColor=none;points=[[0,0.5],[1,0.5]];portConstraint=eastwest;fontSize=16;" vertex="1" parent="mnMjgfDMLzWEeDn6TH5Z-31">
          <mxGeometry width="150" height="30" as="geometry" />
        </mxCell>
        <mxCell id="mnMjgfDMLzWEeDn6TH5Z-33" value="Dest" style="shape=partialRectangle;html=1;whiteSpace=wrap;connectable=0;strokeColor=inherit;overflow=hidden;fillColor=none;top=0;left=0;bottom=0;right=0;pointerEvents=1;fontSize=16;" vertex="1" parent="mnMjgfDMLzWEeDn6TH5Z-32">
          <mxGeometry width="50" height="30" as="geometry">
            <mxRectangle width="50" height="30" as="alternateBounds" />
          </mxGeometry>
        </mxCell>
        <mxCell id="mnMjgfDMLzWEeDn6TH5Z-34" value="Target" style="shape=partialRectangle;html=1;whiteSpace=wrap;connectable=0;strokeColor=inherit;overflow=hidden;fillColor=none;top=0;left=0;bottom=0;right=0;pointerEvents=1;fontSize=16;" vertex="1" parent="mnMjgfDMLzWEeDn6TH5Z-32">
          <mxGeometry x="50" width="50" height="30" as="geometry">
            <mxRectangle width="50" height="30" as="alternateBounds" />
          </mxGeometry>
        </mxCell>
        <mxCell id="mnMjgfDMLzWEeDn6TH5Z-35" value="" style="shape=partialRectangle;html=1;whiteSpace=wrap;connectable=0;strokeColor=inherit;overflow=hidden;fillColor=none;top=0;left=0;bottom=0;right=0;pointerEvents=1;fontSize=16;" vertex="1" parent="mnMjgfDMLzWEeDn6TH5Z-32">
          <mxGeometry x="100" width="50" height="30" as="geometry">
            <mxRectangle width="50" height="30" as="alternateBounds" />
          </mxGeometry>
        </mxCell>
        <mxCell id="mnMjgfDMLzWEeDn6TH5Z-36" value="" style="shape=tableRow;horizontal=0;startSize=0;swimlaneHead=0;swimlaneBody=0;strokeColor=inherit;top=0;left=0;bottom=0;right=0;collapsible=0;dropTarget=0;fillColor=none;points=[[0,0.5],[1,0.5]];portConstraint=eastwest;fontSize=16;" vertex="1" parent="mnMjgfDMLzWEeDn6TH5Z-31">
          <mxGeometry y="30" width="150" height="34" as="geometry" />
        </mxCell>
        <mxCell id="mnMjgfDMLzWEeDn6TH5Z-37" value="&lt;font size=&quot;1&quot;&gt;10.0.0.0/16&lt;/font&gt;" style="shape=partialRectangle;html=1;whiteSpace=wrap;connectable=0;strokeColor=inherit;overflow=hidden;fillColor=none;top=0;left=0;bottom=0;right=0;pointerEvents=1;fontSize=16;" vertex="1" parent="mnMjgfDMLzWEeDn6TH5Z-36">
          <mxGeometry width="50" height="34" as="geometry">
            <mxRectangle width="50" height="34" as="alternateBounds" />
          </mxGeometry>
        </mxCell>
        <mxCell id="mnMjgfDMLzWEeDn6TH5Z-38" value="&lt;font size=&quot;1&quot;&gt;local&lt;/font&gt;" style="shape=partialRectangle;html=1;whiteSpace=wrap;connectable=0;strokeColor=inherit;overflow=hidden;fillColor=none;top=0;left=0;bottom=0;right=0;pointerEvents=1;fontSize=16;" vertex="1" parent="mnMjgfDMLzWEeDn6TH5Z-36">
          <mxGeometry x="50" width="50" height="34" as="geometry">
            <mxRectangle width="50" height="34" as="alternateBounds" />
          </mxGeometry>
        </mxCell>
        <mxCell id="mnMjgfDMLzWEeDn6TH5Z-39" value="" style="shape=partialRectangle;html=1;whiteSpace=wrap;connectable=0;strokeColor=inherit;overflow=hidden;fillColor=none;top=0;left=0;bottom=0;right=0;pointerEvents=1;fontSize=16;" vertex="1" parent="mnMjgfDMLzWEeDn6TH5Z-36">
          <mxGeometry x="100" width="50" height="34" as="geometry">
            <mxRectangle width="50" height="34" as="alternateBounds" />
          </mxGeometry>
        </mxCell>
        <mxCell id="mnMjgfDMLzWEeDn6TH5Z-40" value="" style="shape=tableRow;horizontal=0;startSize=0;swimlaneHead=0;swimlaneBody=0;strokeColor=inherit;top=0;left=0;bottom=0;right=0;collapsible=0;dropTarget=0;fillColor=none;points=[[0,0.5],[1,0.5]];portConstraint=eastwest;fontSize=16;" vertex="1" parent="mnMjgfDMLzWEeDn6TH5Z-31">
          <mxGeometry y="64" width="150" height="33" as="geometry" />
        </mxCell>
        <mxCell id="mnMjgfDMLzWEeDn6TH5Z-41" value="&lt;font size=&quot;1&quot;&gt;0.0.0.0/0&lt;/font&gt;" style="shape=partialRectangle;html=1;whiteSpace=wrap;connectable=0;strokeColor=inherit;overflow=hidden;fillColor=none;top=0;left=0;bottom=0;right=0;pointerEvents=1;fontSize=16;" vertex="1" parent="mnMjgfDMLzWEeDn6TH5Z-40">
          <mxGeometry width="50" height="33" as="geometry">
            <mxRectangle width="50" height="33" as="alternateBounds" />
          </mxGeometry>
        </mxCell>
        <mxCell id="mnMjgfDMLzWEeDn6TH5Z-42" value="&lt;font size=&quot;1&quot;&gt;IG&lt;/font&gt;" style="shape=partialRectangle;html=1;whiteSpace=wrap;connectable=0;strokeColor=inherit;overflow=hidden;fillColor=none;top=0;left=0;bottom=0;right=0;pointerEvents=1;fontSize=16;" vertex="1" parent="mnMjgfDMLzWEeDn6TH5Z-40">
          <mxGeometry x="50" width="50" height="33" as="geometry">
            <mxRectangle width="50" height="33" as="alternateBounds" />
          </mxGeometry>
        </mxCell>
        <mxCell id="mnMjgfDMLzWEeDn6TH5Z-43" value="" style="shape=partialRectangle;html=1;whiteSpace=wrap;connectable=0;strokeColor=inherit;overflow=hidden;fillColor=none;top=0;left=0;bottom=0;right=0;pointerEvents=1;fontSize=16;" vertex="1" parent="mnMjgfDMLzWEeDn6TH5Z-40">
          <mxGeometry x="100" width="50" height="33" as="geometry">
            <mxRectangle width="50" height="33" as="alternateBounds" />
          </mxGeometry>
        </mxCell>
        <mxCell id="mnMjgfDMLzWEeDn6TH5Z-44" value="Private Route Table" style="rounded=1;whiteSpace=wrap;html=1;fillColor=#e1d5e7;strokeColor=#9673a6;" vertex="1" parent="1">
          <mxGeometry x="-135" y="480" width="120" height="60" as="geometry" />
        </mxCell>
        <mxCell id="mnMjgfDMLzWEeDn6TH5Z-45" value="Public Route Table" style="rounded=1;whiteSpace=wrap;html=1;fillColor=#d5e8d4;strokeColor=#82b366;" vertex="1" parent="1">
          <mxGeometry x="-135" y="280" width="120" height="60" as="geometry" />
        </mxCell>
        <mxCell id="mnMjgfDMLzWEeDn6TH5Z-63" value="" style="shape=table;startSize=0;container=1;collapsible=0;childLayout=tableLayout;fontSize=16;" vertex="1" parent="1">
          <mxGeometry x="-140" y="550" width="150" height="97" as="geometry" />
        </mxCell>
        <mxCell id="mnMjgfDMLzWEeDn6TH5Z-64" value="" style="shape=tableRow;horizontal=0;startSize=0;swimlaneHead=0;swimlaneBody=0;strokeColor=inherit;top=0;left=0;bottom=0;right=0;collapsible=0;dropTarget=0;fillColor=none;points=[[0,0.5],[1,0.5]];portConstraint=eastwest;fontSize=16;" vertex="1" parent="mnMjgfDMLzWEeDn6TH5Z-63">
          <mxGeometry width="150" height="30" as="geometry" />
        </mxCell>
        <mxCell id="mnMjgfDMLzWEeDn6TH5Z-65" value="Dest" style="shape=partialRectangle;html=1;whiteSpace=wrap;connectable=0;strokeColor=inherit;overflow=hidden;fillColor=none;top=0;left=0;bottom=0;right=0;pointerEvents=1;fontSize=16;" vertex="1" parent="mnMjgfDMLzWEeDn6TH5Z-64">
          <mxGeometry width="50" height="30" as="geometry">
            <mxRectangle width="50" height="30" as="alternateBounds" />
          </mxGeometry>
        </mxCell>
        <mxCell id="mnMjgfDMLzWEeDn6TH5Z-66" value="Target" style="shape=partialRectangle;html=1;whiteSpace=wrap;connectable=0;strokeColor=inherit;overflow=hidden;fillColor=none;top=0;left=0;bottom=0;right=0;pointerEvents=1;fontSize=16;" vertex="1" parent="mnMjgfDMLzWEeDn6TH5Z-64">
          <mxGeometry x="50" width="50" height="30" as="geometry">
            <mxRectangle width="50" height="30" as="alternateBounds" />
          </mxGeometry>
        </mxCell>
        <mxCell id="mnMjgfDMLzWEeDn6TH5Z-67" value="" style="shape=partialRectangle;html=1;whiteSpace=wrap;connectable=0;strokeColor=inherit;overflow=hidden;fillColor=none;top=0;left=0;bottom=0;right=0;pointerEvents=1;fontSize=16;" vertex="1" parent="mnMjgfDMLzWEeDn6TH5Z-64">
          <mxGeometry x="100" width="50" height="30" as="geometry">
            <mxRectangle width="50" height="30" as="alternateBounds" />
          </mxGeometry>
        </mxCell>
        <mxCell id="mnMjgfDMLzWEeDn6TH5Z-68" value="" style="shape=tableRow;horizontal=0;startSize=0;swimlaneHead=0;swimlaneBody=0;strokeColor=inherit;top=0;left=0;bottom=0;right=0;collapsible=0;dropTarget=0;fillColor=none;points=[[0,0.5],[1,0.5]];portConstraint=eastwest;fontSize=16;" vertex="1" parent="mnMjgfDMLzWEeDn6TH5Z-63">
          <mxGeometry y="30" width="150" height="34" as="geometry" />
        </mxCell>
        <mxCell id="mnMjgfDMLzWEeDn6TH5Z-69" value="&lt;font size=&quot;1&quot;&gt;10.0.0.0/16&lt;/font&gt;" style="shape=partialRectangle;html=1;whiteSpace=wrap;connectable=0;strokeColor=inherit;overflow=hidden;fillColor=none;top=0;left=0;bottom=0;right=0;pointerEvents=1;fontSize=16;" vertex="1" parent="mnMjgfDMLzWEeDn6TH5Z-68">
          <mxGeometry width="50" height="34" as="geometry">
            <mxRectangle width="50" height="34" as="alternateBounds" />
          </mxGeometry>
        </mxCell>
        <mxCell id="mnMjgfDMLzWEeDn6TH5Z-70" value="&lt;font size=&quot;1&quot;&gt;local&lt;/font&gt;" style="shape=partialRectangle;html=1;whiteSpace=wrap;connectable=0;strokeColor=inherit;overflow=hidden;fillColor=none;top=0;left=0;bottom=0;right=0;pointerEvents=1;fontSize=16;" vertex="1" parent="mnMjgfDMLzWEeDn6TH5Z-68">
          <mxGeometry x="50" width="50" height="34" as="geometry">
            <mxRectangle width="50" height="34" as="alternateBounds" />
          </mxGeometry>
        </mxCell>
        <mxCell id="mnMjgfDMLzWEeDn6TH5Z-71" value="" style="shape=partialRectangle;html=1;whiteSpace=wrap;connectable=0;strokeColor=inherit;overflow=hidden;fillColor=none;top=0;left=0;bottom=0;right=0;pointerEvents=1;fontSize=16;" vertex="1" parent="mnMjgfDMLzWEeDn6TH5Z-68">
          <mxGeometry x="100" width="50" height="34" as="geometry">
            <mxRectangle width="50" height="34" as="alternateBounds" />
          </mxGeometry>
        </mxCell>
        <mxCell id="mnMjgfDMLzWEeDn6TH5Z-72" value="" style="shape=tableRow;horizontal=0;startSize=0;swimlaneHead=0;swimlaneBody=0;strokeColor=inherit;top=0;left=0;bottom=0;right=0;collapsible=0;dropTarget=0;fillColor=none;points=[[0,0.5],[1,0.5]];portConstraint=eastwest;fontSize=16;" vertex="1" parent="mnMjgfDMLzWEeDn6TH5Z-63">
          <mxGeometry y="64" width="150" height="33" as="geometry" />
        </mxCell>
        <mxCell id="mnMjgfDMLzWEeDn6TH5Z-73" value="&lt;font size=&quot;1&quot;&gt;0.0.0.0/0&lt;/font&gt;" style="shape=partialRectangle;html=1;whiteSpace=wrap;connectable=0;strokeColor=inherit;overflow=hidden;fillColor=none;top=0;left=0;bottom=0;right=0;pointerEvents=1;fontSize=16;" vertex="1" parent="mnMjgfDMLzWEeDn6TH5Z-72">
          <mxGeometry width="50" height="33" as="geometry">
            <mxRectangle width="50" height="33" as="alternateBounds" />
          </mxGeometry>
        </mxCell>
        <mxCell id="mnMjgfDMLzWEeDn6TH5Z-74" value="&lt;font size=&quot;1&quot;&gt;NAT Gateway&lt;/font&gt;" style="shape=partialRectangle;html=1;whiteSpace=wrap;connectable=0;strokeColor=inherit;overflow=hidden;fillColor=none;top=0;left=0;bottom=0;right=0;pointerEvents=1;fontSize=16;" vertex="1" parent="mnMjgfDMLzWEeDn6TH5Z-72">
          <mxGeometry x="50" width="50" height="33" as="geometry">
            <mxRectangle width="50" height="33" as="alternateBounds" />
          </mxGeometry>
        </mxCell>
        <mxCell id="mnMjgfDMLzWEeDn6TH5Z-75" value="" style="shape=partialRectangle;html=1;whiteSpace=wrap;connectable=0;strokeColor=inherit;overflow=hidden;fillColor=none;top=0;left=0;bottom=0;right=0;pointerEvents=1;fontSize=16;" vertex="1" parent="mnMjgfDMLzWEeDn6TH5Z-72">
          <mxGeometry x="100" width="50" height="33" as="geometry">
            <mxRectangle width="50" height="33" as="alternateBounds" />
          </mxGeometry>
        </mxCell>
      </root>
    </mxGraphModel>
  </diagram>
</mxfile>
